<?xml version="1.0" encoding="UTF-8" standalone="no"?><!DOCTYPE svg PUBLIC "-//W3C//DTD SVG 1.1//EN" "http://www.w3.org/Graphics/SVG/1.1/DTD/svg11.dtd"><svg width="100%" height="100%" viewBox="0 0 355 446" version="1.1" xmlns="http://www.w3.org/2000/svg" xmlns:xlink="http://www.w3.org/1999/xlink" xml:space="preserve" xmlns:serif="http://www.serif.com/" style="fill-rule:evenodd;clip-rule:evenodd;stroke-linejoin:round;stroke-miterlimit:2;"><path d="M114.955,379.735c-20.14,-18.411 -26.02,-57.095 -17.629,-85.122c14.55,17.67 34.711,23.268 55.593,26.427c32.237,4.876 63.897,3.053 93.844,-11.682c3.426,-1.687 6.592,-3.93 10.335,-6.202c2.81,8.152 3.542,16.382 2.56,24.759c-2.386,20.4 -12.539,36.159 -28.686,48.105c-6.457,4.778 -13.29,9.05 -19.959,13.555c-20.487,13.847 -26.03,30.083 -18.332,53.7c0.183,0.579 0.347,1.154 0.761,2.558c-10.461,-4.683 -18.102,-11.5 -23.924,-20.462c-6.149,-9.457 -9.074,-19.921 -9.228,-31.242c-0.077,-5.51 -0.077,-11.069 -0.818,-16.5c-1.809,-13.243 -8.026,-19.172 -19.737,-19.513c-12.019,-0.351 -21.527,7.079 -24.048,18.781c-0.192,0.898 -0.472,1.785 -0.751,2.828l0.019,0.01Z" style="fill:#fff;fill-rule:nonzero;"/><path d="M0,289.944c0,0 59.641,-29.054 119.449,-29.054l45.093,-139.555c1.688,-6.749 6.618,-11.335 12.183,-11.335c5.565,-0 10.494,4.586 12.182,11.335l45.093,139.555c70.834,0 119.449,29.054 119.449,29.054c0,0 -101.305,-275.976 -101.503,-276.53c-2.908,-8.159 -7.816,-13.414 -14.434,-13.414l-121.565,0c-6.617,0 -11.327,5.255 -14.433,13.414c-0.219,0.544 -101.514,276.53 -101.514,276.53Z" style="fill:#fff;fill-rule:nonzero;"/></svg>
